<svg xmlns="http://www.w3.org/2000/svg" viewBox="0 0 100 100" preserveAspectRatio="xMidYMid slice">
<defs><filter id="wc" x="-10%" y="-10%" width="120%" height="120%"><feTurbulence type="fractalNoise" baseFrequency="0.035" numOctaves="3" seed="11"/><feDisplacementMap in="SourceGraphic" scale="6"/><feGaussianBlur stdDeviation="0.6"/></filter>
<filter id="paper"><feTurbulence type="fractalNoise" baseFrequency="0.9" numOctaves="2" seed="3"/><feColorMatrix values="0 0 0 0 0.45  0 0 0 0 0.38  0 0 0 0 0.28  0 0 0 0.10 0"/></filter><radialGradient id="g" cx="45%" cy="40%" r="75%"><stop offset="0" stop-color="#dfe7a8"/><stop offset="1" stop-color="#b9cd7a"/></radialGradient></defs>
<rect width="100" height="100" fill="#efe6d2"/>
<g filter="url(#wc)"><rect x="2" y="2" width="96" height="96" rx="6" fill="url(#g)" opacity="0.92"/><path d="M15 30 q2 -6 4 0 M18 30 q2 -5 3 0" stroke="#7d9b4a" stroke-width="1.4" fill="none" opacity=".7"/><path d="M55 22 q2 -6 4 0 M58 22 q2 -5 3 0" stroke="#7d9b4a" stroke-width="1.4" fill="none" opacity=".7"/><path d="M30 60 q2 -6 4 0 M33 60 q2 -5 3 0" stroke="#7d9b4a" stroke-width="1.4" fill="none" opacity=".7"/><path d="M70 55 q2 -6 4 0 M73 55 q2 -5 3 0" stroke="#7d9b4a" stroke-width="1.4" fill="none" opacity=".7"/><path d="M20 85 q2 -6 4 0 M23 85 q2 -5 3 0" stroke="#7d9b4a" stroke-width="1.4" fill="none" opacity=".7"/><path d="M62 82 q2 -6 4 0 M65 82 q2 -5 3 0" stroke="#7d9b4a" stroke-width="1.4" fill="none" opacity=".7"/><path d="M80 30 q2 -6 4 0 M83 30 q2 -5 3 0" stroke="#7d9b4a" stroke-width="1.4" fill="none" opacity=".7"/><path d="M42 40 q2 -6 4 0 M45 40 q2 -5 3 0" stroke="#7d9b4a" stroke-width="1.4" fill="none" opacity=".7"/></g>
<rect width="100" height="100" filter="url(#paper)"/>
</svg>